# xmcd CD database file
#
# Track frame offsets:
#	150
#	13347
#	33280
#	46637
#	67207
#	82215
#	102390
#	115182
#	126962
#	142550
#	158097
#	174610
#	194905
#	210002
#	227675
#	245090
#
# Disc length: 3477 seconds
#
# Revision: 0
# Processed by: cddbd v1.5.1PL0 Copyright (c) Steve Scherf et al.
# Submitted via: CDex 1.51
#
DISCID=dd0d9310
DTITLE=Alain Fourtier - Camille Sansault - Le bleu de l'été
DYEAR=1900
DGENRE=Jazz
TTITLE0=Four Brothers
TTITLE1=Le bleu de l'été
TTITLE2=Douce ambiance
TTITLE3=Dindi
TTITLE4=Oh ! Lady be good
TTITLE5=Tres palabras
TTITLE6=Rosetta
TTITLE7=Eolienne
TTITLE8=I'm beginning to see the light
TTITLE9=Les moulins de mon coeur
TTITLE10=On the sunny side of the street
TTITLE11=Bossa party
TTITLE12=Monsieur L
TTITLE13=Troublant bolero
TTITLE14=Tears
TTITLE15=All of me
EXTD=
EXTT0=
EXTT1=
EXTT2=
EXTT3=
EXTT4=
EXTT5=
EXTT6=
EXTT7=
EXTT8=
EXTT9=
EXTT10=
EXTT11=
EXTT12=
EXTT13=
EXTT14=
EXTT15=
PLAYORDER=
